{
  "accessors": [
    {
      "bufferView": 2,
      "componentType": 5126,
      "count": 80,
      "max": [
        179.6844940185547,
        -0.0,
        1260.638916015625
      ],
      "min": [
        -177.277099609375,
        -6.000100135803223,
        715.4703979492188
      ],
      "type": "VEC3"
    },
    {
      "bufferView": 2,
      "byteOffset": 960,
      "componentType": 5126,
      "count": 80,
      "max": [
        0.7394142150878906,
        0.8981538414955139,
        0.755384624004364
      ],
      "min": [
        -0.7452864050865173,
        -0.8981538414955139,
        -0.736906886100769
      ],
      "type": "VEC3"
    },
    {
      "bufferView": 0,
      "componentType": 5125,
      "count": 468,
      "type": "SCALAR"
    },
    {
      "bufferView": 2,
      "byteOffset": 1920,
      "componentType": 5126,
      "count": 5950,
      "max": [
        216.27029418945313,
        0.08959999680519104,
        1347.0869140625
      ],
      "min": [
        -211.24099731445313,
        -23.67259979248047,
        657.602294921875
      ],
      "type": "VEC3"
    },
    {
      "bufferView": 2,
      "byteOffset": 73320,
      "componentType": 5126,
      "count": 5950,
      "max": [
        1.0,
        1.0,
        1.0
      ],
      "min": [
        -1.0,
        -1.0,
        -0.9998325705528259
      ],
      "type": "VEC3"
    },
    {
      "bufferView": 1,
      "componentType": 5126,
      "count": 5950,
      "max": [
        6.7515997886657715,
        6.7855000495910645
      ],
      "min": [
        0.0005000000237487257,
        0.0005000000237487257
      ],
      "type": "VEC2"
    },
    {
      "bufferView": 0,
      "byteOffset": 1872,
      "componentType": 5125,
      "count": 31944,
      "type": "SCALAR"
    }
  ],
  "asset": {
    "extras": {
      "author": "Modenese Gastone Interiors (https://sketchfab.com/modeneseinteriors)",
      "license": "CC-BY-4.0 (http://creativecommons.org/licenses/by/4.0/)",
      "source": "https://sketchfab.com/3d-models/luxury-gold-carved-mirror-6522fc0b5b304937820b0612284e0c39",
      "title": "Luxury Gold Carved Mirror"
    },
    "generator": "Sketchfab-15.55.0",
    "version": "2.0"
  },
  "bufferViews": [
    {
      "buffer": 0,
      "byteLength": 129648,
      "name": "floatBufferViews",
      "target": 34963
    },
    {
      "buffer": 0,
      "byteLength": 47600,
      "byteOffset": 129648,
      "byteStride": 8,
      "name": "floatBufferViews",
      "target": 34962
    },
    {
      "buffer": 0,
      "byteLength": 144720,
      "byteOffset": 177248,
      "byteStride": 12,
      "name": "floatBufferViews",
      "target": 34962
    }
  ],
  "buffers": [
    {
      "byteLength": 321968,
      "uri": "scene.bin"
    }
  ],
  "materials": [
    {
      "doubleSided": true,
      "name": "wire_154154229",
      "pbrMetallicRoughness": {
        "metallicFactor": 0.0,
        "roughnessFactor": 0.6
      }
    },
    {
      "doubleSided": true,
      "name": "wire_154215229",
      "pbrMetallicRoughness": {
        "metallicFactor": 0.0,
        "roughnessFactor": 0.6
      }
    }
  ],
  "meshes": [
    {
      "name": "Object_0",
      "primitives": [
        {
          "attributes": {
            "NORMAL": 1,
            "POSITION": 0
          },
          "indices": 2,
          "material": 0,
          "mode": 4
        }
      ]
    },
    {
      "name": "Object_1",
      "primitives": [
        {
          "attributes": {
            "NORMAL": 4,
            "POSITION": 3,
            "TEXCOORD_0": 5
          },
          "indices": 6,
          "material": 1,
          "mode": 4
        }
      ]
    }
  ],
  "nodes": [
    {
      "children": [
        1
      ],
      "matrix": [
        1.0,
        0.0,
        0.0,
        0.0,
        0.0,
        2.220446049250313e-16,
        -1.0,
        0.0,
        0.0,
        1.0,
        2.220446049250313e-16,
        0.0,
        0.0,
        0.0,
        0.0,
        1.0
      ],
      "name": "Sketchfab_model"
    },
    {
      "children": [
        2,
        3
      ],
      "name": "Art 15826 - mirror.obj.cleaner.materialmerger.gles"
    },
    {
      "mesh": 0,
      "name": "Object_2"
    },
    {
      "mesh": 1,
      "name": "Object_3"
    }
  ],
  "scene": 0,
  "scenes": [
    {
      "name": "Sketchfab_Scene",
      "nodes": [
        0
      ]
    }
  ]
}
