<?xml version="1.0" standalone="no"?>
<!DOCTYPE svg PUBLIC "-//W3C//DTD SVG 20010904//EN"
 "http://www.w3.org/TR/2001/REC-SVG-20010904/DTD/svg10.dtd">
<svg version="1.0" xmlns="http://www.w3.org/2000/svg"
 width="1280.000000pt" height="1236.000000pt" viewBox="0 0 1280.000000 1236.000000"
 preserveAspectRatio="xMidYMid meet">
<metadata>
Created by potrace 1.15, written by Peter Selinger 2001-2017
</metadata>
<g transform="translate(0.000000,1236.000000) scale(0.100000,-0.100000)"
fill="#000000" stroke="none">
<path d="M2727 12349 c-178 -26 -288 -71 -631 -259 -75 -41 -83 -44 -155 -42
-153 3 -400 -48 -671 -138 -290 -97 -458 -184 -588 -306 -73 -67 -172 -202
-172 -233 0 -18 27 -25 178 -47 30 -5 40 -10 33 -18 -5 -6 -15 -76 -21 -155
-10 -130 -10 -145 6 -162 24 -26 11 -234 -16 -264 -28 -31 -46 -274 -24 -317
22 -43 10 -230 -17 -268 -14 -19 -21 -56 -29 -152 -10 -118 -9 -131 9 -165 17
-34 18 -49 10 -138 -6 -75 -13 -106 -29 -127 -16 -22 -22 -52 -30 -149 -5 -67
-10 -122 -12 -123 -89 -40 -137 -101 -139 -178 l-2 -48 -54 0 c-246 0 -317
-340 -91 -434 53 -23 145 -21 193 4 22 11 41 20 43 20 2 0 -6 -16 -18 -35 -21
-33 -21 -37 -6 -60 19 -30 20 -35 3 -35 -8 0 -22 -9 -32 -20 -23 -26 -11 -70
23 -85 12 -5 22 -17 22 -25 0 -8 -18 -260 -40 -560 -22 -300 -42 -581 -45
-625 -11 -161 -15 -176 -38 -173 -20 3 -21 8 -18 86 l3 82 -41 0 c-30 0 -43
-5 -51 -20 -15 -27 -38 -25 -46 4 -5 20 -13 24 -66 30 -34 3 -76 6 -94 6 -32
0 -33 -1 -39 -54 -11 -87 -9 -91 63 -94 l62 -3 0 -35 0 -35 -67 3 -68 3 -3
-57 -3 -58 43 0 c71 0 88 -8 88 -42 l0 -30 -68 3 -67 4 -9 -68 c-5 -37 -7 -70
-4 -72 2 -2 45 -7 95 -11 86 -6 91 -6 102 15 16 28 39 27 47 -4 5 -22 12 -25
50 -25 l44 0 0 49 c0 78 10 111 32 111 19 0 20 -6 16 -80 -2 -62 0 -80 10 -80
9 0 7 -8 -7 -26 -28 -35 -26 -69 4 -99 59 -60 147 6 109 81 -11 20 -11 29 -3
34 13 8 15 39 69 825 66 972 61 916 79 922 52 19 69 79 29 107 -21 15 -21 16
-3 36 17 19 17 23 2 60 -18 46 -15 49 23 16 44 -36 116 -50 186 -36 47 10 65
20 105 60 136 136 61 361 -130 389 l-45 6 3 47 c3 59 -24 124 -68 161 l-32 27
9 127 c9 118 8 130 -10 160 -18 30 -18 39 -7 135 8 69 18 110 30 123 13 15 19
52 27 154 9 123 8 138 -9 170 -17 33 -17 45 -7 136 8 64 18 109 30 125 13 19
20 58 27 155 8 119 8 133 -9 160 -26 43 -18 216 12 259 22 31 37 129 39 258 1
51 5 75 13 73 6 -2 115 -11 241 -20 440 -30 649 -62 710 -109 97 -74 188 -287
213 -496 5 -41 7 -187 4 -324 -4 -185 -2 -247 7 -242 6 4 11 19 11 34 0 15 5
34 10 42 8 12 10 9 10 -12 0 -46 16 -32 29 25 22 100 31 88 31 -43 0 -130 -18
-330 -45 -496 -10 -60 -12 -100 -6 -103 6 -4 0 -60 -15 -141 -29 -162 -42
-306 -27 -297 6 4 13 20 16 37 10 49 24 34 30 -33 3 -34 9 -70 12 -80 9 -21
25 -23 25 -2 0 8 4 15 9 15 4 0 6 -33 3 -72 -3 -58 -2 -71 8 -61 7 6 18 9 25
7 7 -3 16 6 21 23 6 22 9 9 15 -60 4 -51 13 -96 21 -105 20 -23 61 -203 60
-260 0 -26 -3 -100 -7 -165 -22 -356 142 -679 486 -958 118 -95 129 -108 219
-257 84 -138 154 -236 335 -467 166 -212 232 -311 304 -460 91 -186 314 -697
360 -822 98 -268 219 -782 286 -1213 14 -91 37 -232 50 -315 14 -82 25 -179
25 -215 0 -123 -17 -161 -211 -476 -192 -312 -293 -456 -383 -544 -52 -50 -56
-52 -57 -30 0 14 -4 57 -8 95 -6 43 -5 118 2 193 14 154 -2 382 -38 561 -14
68 -24 124 -23 125 39 25 98 80 120 115 79 125 -15 301 -160 301 -37 0 -95
-29 -120 -59 -48 -59 -66 -165 -38 -219 19 -35 90 -103 142 -135 l42 -26 21
-113 c11 -62 25 -151 31 -198 13 -111 13 -373 0 -365 -5 3 -10 23 -11 43 0 20
-4 46 -9 57 -7 15 -9 10 -9 -23 -1 -71 -60 -221 -109 -282 -24 -30 -19 -43
-65 155 l-36 150 40 33 c61 52 93 114 85 163 -13 80 -64 139 -132 153 -63 14
-140 -42 -164 -118 -25 -79 9 -149 105 -212 l54 -36 30 -126 c17 -70 34 -148
37 -174 6 -46 6 -47 -51 -107 -55 -58 -58 -60 -84 -47 -43 22 -161 56 -195 56
-43 0 -76 -19 -103 -59 -29 -43 -29 -55 0 -37 22 14 50 19 95 17 32 -1 82 -53
82 -85 0 -43 -39 -44 -128 -3 -91 42 -160 53 -236 37 -101 -21 -166 -86 -166
-167 l0 -44 -30 22 c-23 18 -27 26 -19 40 20 37 174 225 251 304 l78 82 68 7
c94 10 146 37 171 90 54 111 -7 236 -115 236 -43 0 -115 -40 -141 -80 -29 -42
-31 -127 -4 -185 l18 -40 -104 -115 c-58 -63 -137 -157 -175 -208 -39 -50 -77
-92 -84 -92 -20 0 -18 57 5 160 52 230 180 483 361 710 106 132 112 137 201
143 152 11 224 77 224 207 0 81 -27 129 -89 159 -73 36 -148 21 -214 -42 -69
-66 -78 -125 -37 -241 l24 -69 -30 -36 c-171 -204 -254 -328 -338 -502 -70
-146 -105 -249 -128 -376 -9 -51 -19 -93 -22 -93 -16 1 -29 23 -70 110 -71
155 -68 144 -39 178 63 75 91 183 77 292 -27 192 -181 392 -457 590 -177 127
-229 157 -247 139 -15 -16 -142 -295 -185 -406 -41 -105 -58 -173 -75 -301 -8
-59 -22 -138 -31 -177 -23 -102 -14 -160 42 -271 26 -52 44 -97 41 -100 -16
-17 -66 21 -154 118 -54 58 -146 158 -204 221 -58 63 -122 135 -143 160 l-38
47 1 110 c2 97 6 120 31 185 58 142 33 304 -70 472 -28 45 -54 84 -59 87 -10
6 -55 -133 -77 -236 -11 -50 -15 -108 -12 -183 5 -129 30 -199 97 -264 42 -41
58 -79 46 -108 -6 -15 -14 -10 -52 32 -68 74 -133 178 -225 359 -44 89 -103
196 -130 238 -62 97 -68 119 -65 242 2 95 0 105 -31 170 -35 75 -123 170 -244
263 l-67 52 -6 -30 c-8 -36 20 -220 47 -308 11 -36 31 -88 45 -115 32 -63 116
-147 179 -179 28 -14 55 -31 61 -39 6 -7 43 -89 83 -182 39 -94 90 -203 112
-243 28 -51 36 -73 26 -73 -20 0 -111 65 -205 145 -133 114 -248 154 -382 135
-36 -5 -70 -10 -76 -10 -5 0 -16 -4 -24 -9 -11 -7 9 -34 83 -119 166 -190 276
-240 436 -197 153 41 226 8 353 -159 34 -45 100 -122 148 -173 48 -50 92 -101
99 -112 17 -32 -16 -27 -96 15 -38 20 -101 54 -140 74 -87 46 -162 57 -263 40
-82 -14 -194 -65 -233 -107 l-28 -29 138 -58 c75 -32 174 -68 219 -79 104 -25
161 -15 247 43 73 50 131 54 214 15 102 -47 255 -226 288 -334 12 -41 27 -62
89 -117 68 -61 91 -94 66 -94 -5 0 -24 -12 -41 -27 l-32 -26 -57 30 c-106 58
-235 82 -341 63 -77 -14 -162 -48 -157 -64 2 -6 41 -36 87 -68 46 -32 79 -58
73 -58 -23 0 -233 83 -337 134 -157 76 -287 165 -389 267 -48 48 -87 86 -87
83 0 -9 124 -251 168 -329 270 -473 637 -853 1010 -1045 75 -39 85 -42 110
-30 58 27 92 40 92 35 0 -8 -118 -65 -135 -65 -52 0 -202 -129 -235 -202 -87
-191 122 -311 389 -222 124 41 286 146 434 282 37 35 34 18 -13 -73 -85 -168
-74 -299 29 -343 51 -21 162 -18 241 7 126 39 262 143 312 238 13 23 28 43 35
43 7 0 36 -9 65 -21 217 -85 577 -132 853 -110 423 34 816 145 1269 360 71 34
130 60 132 58 2 -1 -1 -20 -6 -42 -50 -219 16 -539 143 -697 126 -156 371 -92
385 102 2 33 6 60 9 60 2 0 14 -6 26 -14 68 -45 183 -37 243 17 51 44 74 95
74 166 l0 60 56 -30 c39 -20 70 -29 103 -29 125 1 222 111 208 237 l-4 42 36
-24 c79 -51 183 -53 245 -4 15 12 27 15 31 9 3 -5 22 -10 40 -10 28 0 37 6 50
29 23 46 53 165 76 306 11 71 22 131 23 133 7 7 56 -41 56 -55 0 -9 -9 -31
-21 -50 -31 -50 -24 -146 18 -235 35 -75 61 -112 142 -206 l55 -63 14 28 c10
18 15 58 16 113 0 132 -37 225 -134 336 -62 71 -79 114 -38 99 9 -4 31 -36 49
-73 68 -134 192 -225 308 -226 35 0 69 7 90 18 l33 18 34 -33 c71 -69 91 -156
54 -228 -30 -60 -34 -110 -15 -177 17 -61 144 -303 158 -304 15 0 56 104 66
167 18 117 -10 223 -87 319 -36 45 -82 124 -82 139 0 11 57 -24 125 -78 39
-29 102 -72 140 -94 71 -42 121 -88 146 -133 10 -17 14 -62 14 -141 0 -115 0
-116 36 -175 28 -46 59 -76 145 -141 73 -55 111 -78 116 -70 13 20 9 120 -7
182 -21 80 -46 115 -165 234 -55 55 -100 105 -100 110 0 16 26 13 61 -5 17 -8
101 -35 187 -59 122 -35 160 -50 172 -67 40 -60 104 -117 161 -143 91 -40 302
-56 357 -26 22 12 -152 169 -226 204 -59 28 -68 29 -135 22 -133 -14 -157 -11
-232 24 -38 18 -126 53 -195 78 -181 65 -339 150 -325 174 12 18 51 8 87 -21
50 -41 78 -50 159 -50 95 0 145 14 269 72 l105 50 -69 35 c-147 74 -273 77
-386 7 -42 -26 -80 -40 -137 -50 l-78 -13 -70 46 c-38 25 -114 79 -167 120
-86 65 -98 77 -98 104 0 17 -4 38 -9 47 -8 15 -2 17 53 17 48 0 76 8 130 33
64 30 75 32 176 32 150 0 347 37 357 67 6 16 -74 127 -149 208 -78 84 -162
148 -250 191 -32 15 -59 33 -62 40 -3 8 21 18 72 29 130 29 281 83 419 152 88
43 138 63 151 59 11 -4 61 -49 111 -101 84 -87 91 -97 91 -135 0 -51 27 -80
73 -80 66 0 90 68 41 117 -21 21 -32 24 -62 19 -36 -5 -39 -3 -123 85 -78 84
-83 90 -55 85 59 -12 192 -83 269 -145 102 -83 127 -116 127 -170 0 -56 42
-101 92 -101 77 0 105 84 48 142 -28 28 -34 30 -76 23 l-45 -6 -72 68 c-109
103 -202 160 -342 208 -15 6 -4 13 50 31 39 13 86 31 106 40 36 15 38 15 77
-11 28 -19 47 -24 65 -20 91 23 71 141 -22 133 -28 -2 -40 -10 -56 -35 -15
-25 -38 -39 -95 -62 -80 -31 -182 -63 -186 -58 -2 2 33 29 76 60 136 99 287
252 395 401 l20 28 1 -89 c1 -84 3 -92 47 -179 67 -134 142 -189 257 -188 52
0 75 6 116 28 53 29 63 42 95 135 38 108 18 234 -62 393 -22 43 -39 80 -39 83
0 2 39 -34 86 -81 119 -117 195 -156 320 -162 119 -6 184 13 249 70 57 50 84
105 85 169 0 66 -17 108 -64 157 -80 85 -187 122 -400 141 -121 11 -164 21
-87 21 65 0 178 29 258 65 94 44 165 110 205 194 27 57 31 75 30 145 -1 67 -6
89 -29 135 -23 45 -38 60 -82 83 -67 35 -162 38 -229 8 -64 -29 -161 -128
-248 -253 -101 -146 -102 -147 -56 -47 50 109 63 164 63 270 0 157 -67 281
-183 339 -125 63 -262 32 -324 -74 -59 -101 -39 -265 55 -457 28 -56 49 -103
47 -105 -1 -1 -20 21 -42 49 -51 67 -153 151 -229 189 -42 21 -88 33 -151 41
-88 10 -93 10 -145 -14 -134 -63 -186 -134 -175 -239 19 -184 171 -276 488
-296 l113 -7 -95 -17 c-129 -23 -175 -36 -240 -69 -88 -45 -135 -92 -177 -178
-34 -68 -38 -84 -37 -152 0 -90 22 -140 84 -193 78 -67 172 -70 282 -10 56 30
161 137 214 218 41 61 53 71 28 23 -125 -241 -374 -491 -642 -642 -162 -92
-451 -197 -479 -174 -22 18 -6 25 67 32 74 8 84 15 49 40 -36 25 -17 42 52 50
38 4 66 12 71 20 5 8 24 20 43 26 19 6 35 15 35 19 0 9 -109 41 -138 41 -26 0
-33 10 -22 30 10 19 158 110 178 110 7 0 12 9 12 19 0 11 19 38 43 60 l42 41
-75 -6 c-41 -3 -97 -10 -123 -15 -66 -12 -67 -12 -67 14 0 25 41 88 79 121 11
11 21 26 21 34 0 7 8 27 17 43 9 15 15 30 12 33 -2 2 -23 -1 -46 -7 -23 -6
-46 -8 -49 -4 -4 4 -6 34 -5 66 2 49 -2 64 -18 80 -12 12 -21 29 -21 39 0 10
-3 21 -6 25 -10 10 -63 -49 -79 -88 -19 -43 -39 -45 -65 -3 -20 33 -22 32 -35
-27 -12 -56 -29 -85 -51 -85 -11 0 -29 -6 -39 -14 -20 -15 -15 -17 -107 45
l-31 22 6 -63 c7 -61 6 -62 -16 -56 -12 3 -30 6 -39 6 -11 0 -18 8 -18 19 0
30 -39 71 -67 71 -14 0 -36 11 -49 25 -49 53 -118 36 -137 -34 l-8 -33 -23 21
c-43 40 -126 15 -126 -39 0 -11 -6 -20 -14 -20 -8 0 -21 -3 -30 -6 -11 -4 -19
2 -25 19 -11 28 -47 57 -72 57 -31 0 -69 -39 -69 -71 0 -37 -16 -30 -25 10 -4
20 0 41 14 67 36 67 21 144 -33 174 -30 16 -31 21 -10 61 8 17 23 63 33 102
18 70 20 72 55 79 91 19 136 75 136 169 0 47 -4 55 -40 91 -39 39 -42 40 -94
36 -37 -3 -65 -12 -88 -29 -18 -14 -78 -39 -133 -57 -192 -60 -359 -156 -461
-263 -49 -53 -51 -54 -100 -51 -43 3 -55 0 -83 -24 -32 -27 -34 -27 -97 -15
-98 18 -176 -9 -215 -74 -23 -36 -23 -30 -3 55 9 37 17 134 20 224 l5 159 39
28 c21 16 44 37 49 48 15 28 13 81 -3 113 -14 26 -12 32 41 126 30 54 100 161
154 238 180 253 259 395 291 521 l11 44 25 -23 25 -23 -6 105 c-4 58 -16 175
-27 260 -24 186 -24 181 -5 174 8 -4 21 -1 28 4 8 7 18 7 27 2 35 -22 42 -8
10 20 -35 30 -35 30 -7 24 30 -7 36 6 12 26 -22 18 -11 24 14 9 11 -7 24 -10
28 -5 9 9 -30 45 -100 93 -26 18 -47 40 -47 48 0 12 4 14 19 5 30 -16 43 -12
36 10 -4 11 -2 20 4 20 19 0 12 22 -14 42 -14 11 -25 24 -25 29 0 18 68 39
123 39 89 0 162 -26 376 -135 141 -72 215 -105 239 -105 35 0 35 0 114 100 49
61 124 111 207 137 43 13 90 17 201 17 161 -1 232 -13 525 -89 94 -24 238 -58
320 -75 83 -17 233 -55 335 -85 230 -67 291 -82 406 -95 100 -11 215 -1 296
26 l46 15 157 -55 c108 -37 178 -68 224 -99 94 -63 144 -86 195 -93 42 -6 45
-5 52 20 3 14 8 26 11 26 8 0 299 -158 392 -214 52 -31 103 -56 113 -56 11 0
27 13 36 30 9 16 20 30 23 30 7 0 25 -12 185 -122 101 -69 176 -98 254 -98 33
0 60 4 60 9 0 5 7 25 15 45 l15 36 60 -39 c106 -68 245 -101 302 -70 24 13 48
67 48 109 0 16 2 30 4 30 2 0 46 -25 97 -55 57 -34 100 -53 109 -49 8 4 41 9
72 12 49 4 76 -2 177 -37 172 -59 191 -56 191 30 0 49 13 55 81 35 54 -16 111
-21 122 -10 12 12 -32 82 -74 117 -23 20 -136 84 -253 143 -306 154 -605 312
-733 387 -61 36 -165 93 -230 126 -82 42 -181 107 -323 213 -381 282 -754 553
-983 712 -125 87 -226 160 -225 162 5 4 345 -56 538 -96 546 -111 960 -217
1535 -390 261 -78 381 -107 465 -112 l45 -3 3 38 c4 50 12 49 204 -17 172 -60
287 -84 301 -63 13 20 1 102 -22 148 -44 85 -228 248 -371 327 -76 42 -372
171 -505 220 -206 76 -395 130 -1030 296 -817 214 -778 200 -1005 343 -168
105 -217 130 -397 203 -126 50 -158 70 -113 70 19 0 187 53 196 62 7 8 -106
241 -142 291 -28 38 -32 51 -24 67 8 14 5 25 -13 47 -13 15 -48 69 -77 118
-93 156 -230 271 -465 388 -150 74 -255 118 -560 232 -266 100 -333 129 -584
259 -176 91 -252 113 -469 132 -286 25 -338 48 -491 212 -55 59 -147 143 -216
195 -66 50 -307 240 -535 422 -507 404 -866 683 -1042 808 -160 114 -195 149
-243 246 -20 41 -66 122 -102 180 -36 58 -140 236 -230 394 -232 407 -317 539
-449 698 -78 94 -227 237 -319 307 -80 60 -299 171 -396 201 -129 39 -319 51
-462 30z m-1918 -1089 c1 -14 0 -70 -4 -126 l-7 -100 -32 0 c-32 1 -33 1 -30
46 2 25 5 77 7 116 2 39 7 77 12 83 13 21 50 8 54 -19z m-39 -626 c0 -17 -3
-65 -6 -106 -7 -75 -7 -75 -35 -74 -28 1 -29 3 -29 47 0 25 3 73 6 106 6 58 7
60 35 59 25 -1 29 -5 29 -32z m-40 -609 c0 -33 -3 -84 -6 -113 -6 -42 -9 -50
-20 -41 -8 6 -21 9 -29 5 -12 -4 -15 5 -15 52 0 31 3 80 6 107 6 47 8 50 35
50 29 0 29 0 29 -60z m-52 -528 c14 5 17 -79 6 -161 -6 -43 -9 -46 -35 -46
-29 0 -29 1 -29 58 0 31 3 80 6 109 6 44 9 51 23 44 9 -5 22 -6 29 -4z m-5
-308 c58 -26 75 -116 32 -167 -14 -17 -25 -33 -25 -37 0 -3 12 -21 26 -40 l25
-33 46 20 c57 25 101 18 148 -23 104 -91 43 -249 -96 -249 -69 0 -110 34 -139
113 -5 15 -17 27 -26 27 -15 0 -14 3 4 23 28 30 28 42 -3 72 -17 18 -35 25
-61 25 -61 0 -90 -41 -64 -91 8 -15 7 -19 -4 -19 -8 0 -23 -17 -33 -37 -27
-51 -63 -75 -120 -80 -155 -13 -212 198 -73 270 45 23 107 18 150 -13 l32 -23
36 36 36 36 -21 23 c-29 32 -36 63 -23 103 21 63 91 92 153 64z m4923 -4120
c102 -61 140 -92 159 -130 20 -37 19 -65 -6 -154 -16 -58 -18 -79 -9 -95 6
-12 10 -31 9 -43 -1 -12 2 -30 6 -40 4 -10 3 -36 -4 -56 -13 -44 -15 -84 -3
-78 4 3 8 -34 8 -81 1 -48 12 -145 25 -217 16 -91 23 -170 23 -265 l1 -135
-52 -109 c-82 -169 -186 -329 -311 -475 l-29 -35 -36 36 c-100 100 -237 32
-237 -118 0 -38 6 -51 39 -87 37 -40 38 -44 25 -68 -7 -14 -24 -33 -38 -42
-50 -33 -103 -37 -332 -22 -210 13 -225 16 -347 55 -71 22 -137 40 -147 40
-11 0 -34 13 -51 28 l-32 29 33 59 c81 143 211 340 315 480 143 190 179 250
211 349 34 106 41 259 24 506 -7 104 -11 191 -8 194 3 3 22 -17 43 -46 23 -32
40 -48 44 -40 5 7 16 -5 31 -31 23 -41 24 -42 30 -18 5 21 7 22 13 8 10 -27
30 -22 22 5 l-7 22 17 -22 c9 -13 21 -23 26 -23 6 0 5 9 -2 23 -11 20 -11 21
5 8 9 -8 18 -12 21 -10 2 3 -11 43 -30 89 -40 99 -40 96 -18 79 15 -13 16 -11
10 21 l-7 35 31 -37 c37 -45 54 -49 44 -10 l-7 27 25 -23 c16 -16 26 -19 29
-11 2 6 39 -30 82 -82 43 -52 83 -94 87 -93 5 1 18 2 28 3 14 1 18 6 13 23 -4
17 -2 20 13 15 15 -6 17 -3 13 23 -4 26 -2 29 14 24 19 -6 25 10 7 22 -8 5 -8
8 0 13 15 10 -9 79 -49 137 -16 25 -30 47 -30 48 0 2 9 6 20 9 15 4 28 -6 52
-35 41 -52 48 -33 13 30 -15 26 -22 41 -14 35 19 -19 28 -16 22 7 -3 11 0 20
6 20 6 0 11 -4 11 -10 0 -12 10 -13 29 -1 12 8 13 14 3 35 -13 30 -6 33 20 9
27 -24 24 -4 -17 123 -20 60 -33 115 -30 123 9 22 59 6 151 -50z m142 -2101
c-4 -111 -11 -178 -27 -246 l-23 -93 -41 6 c-23 4 -43 8 -44 9 -2 1 -6 37 -11
79 l-8 76 43 36 c37 31 43 42 43 74 0 20 -6 46 -14 56 -12 17 -10 28 26 98 27
56 43 76 50 69 7 -7 9 -64 6 -164z m-159 -280 c1 -32 -9 -35 -37 -10 l-20 17
21 55 22 55 7 -45 c3 -25 7 -57 7 -72z m-1223 87 c18 -14 18 -14 -4 -15 -13 0
-37 -14 -54 -30 -24 -24 -29 -36 -24 -58 7 -29 115 -136 278 -275 53 -45 95
-83 94 -84 -1 -2 -32 9 -67 24 -59 25 -76 28 -210 29 -175 3 -200 11 -231 82
-23 51 -35 167 -24 226 6 29 11 36 30 36 17 0 26 -7 31 -27 l6 -27 17 26 c24
37 104 107 123 108 8 0 24 -7 35 -15z m658 -142 c-1 -7 -2 -52 -2 -100 l-2
-88 -45 45 -45 45 12 58 12 58 36 -3 c20 -2 35 -8 34 -15z m-250 -37 c18 -43
51 -66 96 -66 28 0 47 -11 94 -52 l59 -52 -7 -78 c-9 -104 -16 -138 -31 -138
-23 0 -44 35 -69 115 -28 86 -80 174 -152 254 -39 44 -43 51 -25 51 14 0 25
-11 35 -34z m-2302 -148 c25 -57 44 -105 43 -106 -2 -2 -35 4 -74 14 -68 18
-73 21 -108 73 -20 30 -32 56 -27 58 5 2 32 16 59 33 28 16 53 29 56 29 3 1
27 -45 51 -101z m-688 -17 c27 -13 66 -26 88 -28 l38 -6 0 -88 c0 -49 -2 -89
-5 -89 -2 0 -28 18 -57 40 -29 21 -78 49 -110 61 -32 12 -58 23 -58 25 0 14
43 114 48 112 4 -2 29 -14 56 -27z m1174 -63 c7 -7 12 -23 12 -36 0 -19 -4
-23 -17 -17 -10 4 -39 15 -65 24 -26 9 -48 19 -48 23 0 18 101 23 118 6z m917
-49 c22 -5 63 -19 91 -30 41 -16 53 -26 63 -56 7 -19 29 -52 47 -73 31 -34 33
-40 23 -64 -9 -19 -20 -26 -41 -26 -19 0 -28 5 -28 15 0 57 -96 167 -187 214
-45 24 -53 30 -33 30 14 1 43 -4 65 -10z m-1077 -150 l32 -38 -22 -15 c-21
-15 -23 -15 -37 12 -8 15 -24 40 -37 56 -21 28 -22 31 -7 60 l16 31 12 -34 c6
-18 25 -50 43 -72z m936 -97 c-43 -4 -48 0 -39 27 6 20 6 20 40 -2 l34 -22
-35 -3z m354 -68 c2 -23 -6 -45 -28 -76 -33 -47 -53 -138 -39 -176 7 -18 12
-19 46 -11 96 24 100 23 116 -7 39 -75 124 -134 213 -149 22 -3 56 -16 75 -28
l34 -22 -312 -8 -313 -9 -64 56 c-40 35 -75 78 -94 115 l-32 58 63 23 c92 33
161 75 206 126 41 47 71 101 71 129 0 12 7 15 28 13 22 -2 28 -8 30 -34z
m3530 -9 c23 -49 17 -58 -33 -52 l-45 7 26 -41 c14 -23 24 -42 22 -44 -2 -1
-55 -29 -118 -62 -69 -37 -133 -63 -160 -66 -44 -6 -45 -6 -44 23 0 18 14 44
37 69 29 32 51 62 73 99 0 1 14 -2 29 -8 50 -19 105 21 105 75 0 17 16 23 61
24 29 1 38 -4 47 -24z m-2719 -265 c61 -199 78 -230 131 -230 22 0 78 -29 58
-30 -4 0 -3 -13 2 -30 5 -16 6 -30 3 -30 -3 0 -55 16 -114 35 -60 19 -118 35
-130 35 -21 0 -22 2 -15 103 7 112 27 268 32 252 2 -5 17 -53 33 -105z m-3041
46 c18 -25 46 -73 62 -108 39 -82 29 -84 -103 -19 -57 27 -125 60 -153 71
l-49 22 75 27 c41 15 84 32 95 39 32 18 40 15 73 -32z m2587 -35 c3 -6 18 -6
38 0 17 5 36 9 42 9 6 0 11 -41 12 -101 1 -99 1 -100 -18 -83 -16 14 -57 89
-97 177 -5 10 16 9 23 -2z m2375 -152 c0 -3 -14 -18 -31 -35 -17 -16 -40 -46
-50 -67 -21 -41 -39 -51 -118 -65 -56 -10 -62 -5 -30 24 11 10 37 41 57 68 38
52 97 86 144 83 15 -1 28 -5 28 -8z m-3022 -45 c35 -24 26 -34 -33 -34 l-55 0
12 25 c13 29 43 33 76 9z m649 -67 l112 -12 30 -46 c16 -26 34 -50 41 -54 7
-5 -7 -18 -40 -37 -28 -16 -69 -47 -91 -69 l-40 -40 -147 35 c-81 19 -166 38
-188 42 -59 9 -67 16 -59 53 10 48 59 97 113 115 87 28 113 29 269 13z m2783
-37 c56 -55 139 -114 209 -150 43 -21 44 -23 25 -37 -47 -35 -45 -36 -172 85
-67 64 -122 125 -122 135 0 9 2 17 4 17 3 0 28 -23 56 -50z m-3146 9 c-9 -10
-58 -32 -109 -49 -51 -17 -100 -37 -110 -44 -13 -9 -31 -10 -64 -5 -25 5 -90
13 -144 17 -54 5 -100 12 -104 16 -10 10 29 48 70 66 32 15 72 17 258 17 213
1 219 0 203 -18z m2931 -56 c3 -32 8 -68 11 -80 4 -21 3 -21 -28 -9 -18 7 -41
16 -50 19 -15 5 -15 11 -3 56 16 62 22 71 45 71 15 0 20 -10 25 -57z m-2028
-3 c98 -23 149 -49 181 -93 17 -24 51 -54 76 -68 51 -27 54 -33 26 -69 -19
-25 -20 -25 -172 -24 -136 0 -350 18 -370 30 -4 3 10 20 31 40 48 42 71 89 71
141 0 22 3 43 7 46 9 10 102 8 150 -3z m1700 -54 c3 -3 -22 -84 -28 -90 -3 -3
-30 19 -60 50 l-54 55 70 -7 c39 -4 71 -7 72 -8z"/>
</g>
</svg>
