<svg viewBox="0 0 500 500" xmlns="http://www.w3.org/2000/svg">
    <defs></defs>
    <g>
        <path 
            style="stroke: #fff; fill: #fff;" 
            d="M 325.861 69.744 C 302.007 69.744 268.501 94.529 262.945 97.191 C 257.434 99.831 280.394 107.222 274.681 109.176 C 272.207 110.022 252.589 108.038 248.549 112.079 C 245.38 115.248 240.148 115.833 236.934 119.047 C 235.373 120.608 227.243 126.779 228.804 128.339 C 230.186 129.721 234.778 129.087 236.353 130.662 C 236.935 131.244 238.155 131.823 239.257 131.823 C 239.256 134.023 229.72 136.715 228.223 138.211 C 220.964 145.47 207.064 147.175 199.768 154.472 C 199.042 155.197 186.411 158.537 186.411 158.537 C 186.411 158.537 191.203 158.537 191.638 158.537 C 196.599 158.537 200.609 159.698 206.156 159.698 C 202.189 163.662 195.171 163.133 191.057 167.247 C 188.928 169.377 182.153 166.86 180.023 168.99 C 177.325 171.687 172.035 171.171 169.57 173.635 C 161.181 182.024 152.46 188.423 144.019 196.864 C 143.575 197.308 135.889 205.575 135.889 205.575 C 135.889 205.575 149.971 205.575 150.988 205.575 C 150.441 205.028 143.283 209.369 142.276 211.382 C 140.907 214.121 130.697 218.316 128.339 220.674 C 121.939 227.073 113.676 235.918 108.014 241.58 C 107.53 242.063 101.045 246.225 101.045 246.225 C 101.045 246.225 105.306 246.225 105.691 246.225 C 110.03 246.225 117.3 244.483 121.952 244.483 C 121.951 250.653 106.847 249.135 103.368 252.613 C 102.594 253.388 91.367 264.034 90.592 264.808 C 86.244 269.156 123.091 253.797 118.467 258.421 C 115.816 261.072 88.394 270.491 85.366 273.519 C 78.644 280.241 71.952 306.096 65.041 313.008 C 59.248 318.801 57.255 326.601 52.265 331.591 C 51.926 331.93 49.532 336.988 49.942 337.398 C 50.364 337.82 53.651 336.237 54.588 336.237 C 57.525 336.237 61.994 335.04 63.827 333.206 C 64.222 332.812 79.304 327.219 79.304 327.219 C 79.304 327.219 64.288 335.668 63.974 335.982 C 59.886 340.071 61.416 338.412 57.057 342.771 C 55.902 343.927 53.613 351.466 52.846 353.078 C 46.451 366.523 54.36 351.719 48.199 369.918 C 39.031 397.001 44.088 391.002 42.973 397.213 C 38.944 419.661 45.025 416.647 41.231 420.441 C 40.656 421.016 36.586 441.234 36.586 441.928 C 39.686 441.93 53.904 430.416 55.749 428.571 C 56.523 427.797 63.685 422.957 64.46 422.183 C 67.088 419.555 68.979 419.924 72.59 418.118 C 77.845 415.491 89.917 416.763 108.423 383.376 C 113.315 374.549 100.306 412.904 102.915 408.591 C 110.859 395.458 121.048 391.147 130.081 382.114 C 139.207 372.987 139.423 353.609 148.084 344.948 C 154.01 339.021 157.137 330.668 162.602 325.203 C 164.419 323.386 168.408 316.315 168.408 314.75 C 168.41 316.994 162.701 329.071 161.441 331.591 C 158.839 336.795 152.697 349.045 148.664 353.078 C 148.303 353.438 148.084 364.692 148.084 364.692 C 148.084 364.692 163.136 350.221 163.763 349.593 C 170.291 343.065 176.468 338.631 183.508 331.591 C 187.975 327.124 191.305 319.729 195.703 315.331 C 196.291 314.742 194.542 289.543 194.542 288.618 C 194.542 284.91 198.149 296.044 200.349 293.845 C 208.992 285.201 207.613 275.546 216.609 266.55 C 218.199 264.96 217.77 243.499 217.77 240.999 C 222.442 240.999 226.071 255.278 227.642 258.42 C 228.087 259.31 229.688 263.924 231.127 262.486 C 235.062 258.55 236.838 252.129 240.418 248.548 C 241.007 247.96 240.418 243.666 240.418 242.741 C 240.418 236.628 241.58 234.831 241.58 228.804 C 241.58 227.786 242.674 221.902 243.322 221.254 C 245.394 219.182 244.26 212.41 245.645 209.64 C 246.095 208.739 248.548 207.032 248.548 206.736 C 248.549 213.598 248.642 219.118 250.871 223.577 C 251.218 224.272 248.549 244.484 248.549 244.484 C 248.549 244.484 264.97 222.367 265.389 221.835 C 269.524 216.592 272.167 208.031 274.368 204.413 C 277.361 199.493 277.782 193.393 278.798 187.209 C 279.231 184.572 277.004 173.587 277.004 171.312 C 278.256 166.3 282.141 178.683 283.391 181.185 C 283.669 181.739 292.989 193.578 292.989 193.578 C 292.989 193.578 292.388 178.319 293.263 177.337 C 298.887 171.025 296.854 168.285 304.17 160.968 C 310.449 154.69 306.422 134.955 306.422 130.445 C 306.422 129.302 312.705 148.431 313.844 147.293 C 317.527 143.61 320.792 141.129 324.935 136.987 C 329.106 132.816 323.587 122.731 327.787 118.531 C 328.531 117.787 330.744 132.096 331.234 131.116 C 332.09 129.404 343.984 117.127 345.254 101.474 C 346.343 88.053 336.874 78.968 336.818 77.236 C 333.474 72.778 333.858 70.834 336.748 67.944 C 341.271 63.421 344.306 60.456 349.013 55.749 C 349.535 55.227 359.214 46.206 358.304 45.296 C 353.942 40.934 353.247 35.667 350.755 40.65 C 346.313 49.536 339.824 59.274 332.587 64.83"></path>
    </g>
</svg>